<svg width="969" height="123" viewBox="0 0 969 123" fill="none" xmlns="http://www.w3.org/2000/svg">
<path d="M0 120.384V31.68H18.56V33.984C18.56 35.904 18.432 37.312 18.048 39.872C21.76 33.984 28.288 29.504 37.888 29.504C53.504 29.504 65.024 42.432 65.024 63.296C65.024 84.288 52.864 96.704 37.248 96.704C27.264 96.704 21.76 92.352 18.048 86.464C18.432 88.896 18.56 90.56 18.56 92.224V120.384H0ZM32 82.368C40.448 82.368 46.208 74.56 46.208 63.168C46.208 51.776 40.704 43.968 32 43.968C23.552 43.968 17.664 51.264 17.664 63.168C17.664 74.56 23.552 82.368 32 82.368Z" fill="black"/>
<path d="M76.375 94.4V31.68H94.935V94.4H76.375ZM75.991 22.976V5.696H95.319V22.976H75.991Z" fill="black"/>
<path d="M138.812 96.704C119.868 96.704 106.172 84.672 106.172 62.912C106.172 42.816 119.484 29.504 138.428 29.504C158.14 29.504 169.532 43.072 169.532 63.808V67.392H124.988C125.116 76.224 130.876 82.624 138.812 82.624C144.7 82.624 149.564 79.424 150.46 73.664H169.148C167.868 86.72 156.476 96.704 138.812 96.704ZM150.588 55.232C150.46 47.808 145.468 42.816 138.3 42.816C130.876 42.816 125.628 48.064 124.86 55.232H150.588Z" fill="black"/>
<path d="M180.875 94.4V31.68H199.307V36.032C199.307 38.464 199.179 40.384 198.795 42.688C202.123 35.392 208.011 29.504 217.099 29.504C218.379 29.504 219.403 29.632 220.427 29.888V47.808C219.275 47.552 217.867 47.296 215.819 47.296C206.731 47.296 199.435 52.032 199.435 65.472V94.4H180.875Z" fill="black"/>
<path d="M230 94.4V31.68H248.432V36.032C248.432 38.464 248.304 40.384 247.92 42.688C251.248 35.392 257.136 29.504 266.224 29.504C267.504 29.504 268.528 29.632 269.552 29.888V47.808C268.4 47.552 266.992 47.296 264.944 47.296C255.856 47.296 248.56 52.032 248.56 65.472V94.4H230Z" fill="black"/>
<path d="M306.437 96.704C287.493 96.704 273.797 84.672 273.797 62.912C273.797 42.816 287.109 29.504 306.053 29.504C325.765 29.504 337.157 43.072 337.157 63.808V67.392H292.613C292.741 76.224 298.501 82.624 306.437 82.624C312.325 82.624 317.189 79.424 318.085 73.664H336.773C335.493 86.72 324.101 96.704 306.437 96.704ZM318.213 55.232C318.085 47.808 313.093 42.816 305.925 42.816C298.501 42.816 293.253 48.064 292.485 55.232H318.213Z" fill="black"/>
<path d="M377.812 96.704C358.868 96.704 345.172 84.672 345.172 62.912C345.172 42.816 358.484 29.504 377.428 29.504C397.14 29.504 408.532 43.072 408.532 63.808V67.392H363.988C364.116 76.224 369.876 82.624 377.812 82.624C383.7 82.624 388.564 79.424 389.46 73.664H408.148C406.868 86.72 395.476 96.704 377.812 96.704ZM389.588 55.232C389.46 47.808 384.468 42.816 377.3 42.816C369.876 42.816 364.628 48.064 363.86 55.232H389.588Z" fill="black"/>
<path d="M419.875 94.4V31.68H438.307V36.032C438.307 38.464 438.179 40.384 437.795 42.688C441.123 35.392 447.011 29.504 456.099 29.504C457.379 29.504 458.403 29.632 459.427 29.888V47.808C458.275 47.552 456.867 47.296 454.819 47.296C445.731 47.296 438.435 52.032 438.435 65.472V94.4H419.875Z" fill="black"/>
<path d="M469 94.4V31.68H487.56V94.4H469ZM468.616 22.976V5.696H487.944V22.976H468.616Z" fill="black"/>
<path d="M531.181 96.704C511.213 96.704 498.669 84.032 498.669 63.04C498.669 41.792 513.517 29.504 531.949 29.504C551.149 29.504 561.389 41.024 562.797 56.256H544.237C543.853 49.728 539.885 44.096 532.077 44.096C524.269 44.096 517.613 50.496 517.613 63.04C517.613 74.56 523.245 82.368 531.821 82.368C540.013 82.368 544.109 76.48 544.749 69.568H563.309C561.261 86.08 550.509 96.704 531.181 96.704Z" fill="black"/>
<path d="M602.806 122.688C583.606 122.688 572.982 112.448 572.854 97.856H591.542C591.798 104.512 595.766 108.48 603.446 108.48C610.87 108.48 616.758 104 616.758 95.552V89.536C616.758 86.976 616.886 84.672 617.27 82.24C613.814 87.616 607.414 92.096 598.326 92.096C582.198 92.096 570.55 81.088 570.55 60.864C570.55 40.768 583.99 29.504 597.686 29.504C607.798 29.504 613.814 33.984 617.27 39.872C616.886 37.568 616.758 35.904 616.758 33.6V31.68H635.318V91.2C635.318 112.448 622.134 122.688 602.806 122.688ZM603.702 77.632C612.022 77.632 618.038 70.848 618.038 60.864C618.038 50.88 612.022 43.968 603.702 43.968C595.254 43.968 589.494 50.88 589.494 60.864C589.494 70.72 595.254 77.632 603.702 77.632Z" fill="black"/>
<path d="M668.435 96.704C657.427 96.704 646.803 89.536 646.803 76.736C646.803 62.656 658.195 57.792 671.507 56.128L680.467 55.104C685.459 54.464 687.123 52.8 687.123 49.984C687.123 46.144 683.923 42.816 678.035 42.816C671.763 42.816 667.667 46.272 667.027 52.032H648.211C649.235 38.976 660.371 29.504 677.395 29.504C697.107 29.504 705.171 39.744 705.171 57.408V94.4H688.019V92.096C688.019 90.176 688.147 88.256 688.531 86.336C685.203 92.48 678.675 96.704 668.435 96.704ZM674.195 83.52C681.747 83.52 687.507 78.144 687.507 70.208V64.32C686.227 65.472 684.179 66.112 680.467 66.88L676.115 67.648C669.715 68.8 665.491 71.104 665.491 75.84C665.491 80.704 669.203 83.52 674.195 83.52Z" fill="black"/>
<path d="M719 94.4V31.68H737.432V36.032C737.432 38.464 737.304 40.384 736.92 42.688C740.248 35.392 746.136 29.504 755.224 29.504C756.504 29.504 757.528 29.632 758.552 29.888V47.808C757.4 47.552 755.992 47.296 753.944 47.296C744.856 47.296 737.56 52.032 737.56 65.472V94.4H719Z" fill="black"/>
<path d="M795.181 96.704C775.213 96.704 762.669 84.032 762.669 63.04C762.669 41.792 777.517 29.504 795.949 29.504C815.149 29.504 825.389 41.024 826.797 56.256H808.237C807.853 49.728 803.885 44.096 796.077 44.096C788.269 44.096 781.613 50.496 781.613 63.04C781.613 74.56 787.245 82.368 795.821 82.368C804.013 82.368 808.109 76.48 808.749 69.568H827.309C825.261 86.08 814.509 96.704 795.181 96.704Z" fill="black"/>
<path d="M837.75 94.4V31.68H856.31V94.4H837.75ZM837.366 22.976V5.696H856.694V22.976H837.366Z" fill="black"/>
<path d="M889.435 96.704C878.427 96.704 867.803 89.536 867.803 76.736C867.803 62.656 879.195 57.792 892.507 56.128L901.467 55.104C906.459 54.464 908.123 52.8 908.123 49.984C908.123 46.144 904.923 42.816 899.035 42.816C892.763 42.816 888.667 46.272 888.027 52.032H869.211C870.235 38.976 881.371 29.504 898.395 29.504C918.107 29.504 926.171 39.744 926.171 57.408V94.4H909.019V92.096C909.019 90.176 909.147 88.256 909.531 86.336C906.203 92.48 899.675 96.704 889.435 96.704ZM895.195 83.52C902.747 83.52 908.507 78.144 908.507 70.208V64.32C907.227 65.472 905.179 66.112 901.467 66.88L897.115 67.648C890.715 68.8 886.491 71.104 886.491 75.84C886.491 80.704 890.203 83.52 895.195 83.52Z" fill="black"/>
<path d="M926.472 22.4V4.992H919.368V0H939.464V4.992H932.424V22.4H926.472Z" fill="black"/>
<path d="M941.876 22.4V0H950.804L954.676 13.824C954.964 14.88 955.156 15.776 955.252 16.608C955.38 15.776 955.54 14.88 955.828 13.824L959.476 0H968.404V22.4H962.836V8.832C962.836 7.712 962.868 6.624 962.964 5.536L958.612 22.4H951.956L947.284 5.6C947.38 6.688 947.412 7.744 947.412 8.864V22.4H941.876Z" fill="black"/>
</svg>
